#!OML:ASF F:\VICON\USERDATA\INSTALL\Justin_Nancy\Justin_Nancy.ASF
:FULLY-SPECIFIED
:DEGREES
78
root 0.72696 17.7332 -15.7022 5.26691 -3.33987 -0.855172
lowerback 4.22349 0.0957713 -0.582545
upperback -0.982772 0.186908 2.78957
thorax -3.39463 0.133939 3.19477
lowerneck -16.0102 -4.47097 -10.5332
upperneck 20.3156 -4.87621 6.01924
head 9.47335 -2.43889 3.19928
rclavicle -1.98785e-015 1.98785e-014
rhumerus -33.9059 -9.72854 -78.724
rradius 33.0727
rwrist 4.66083
rhand -11.7388 13.043
rfingers 7.12502
rthumb 14.3087 -16.444
lclavicle -1.98785e-015 1.98785e-014
lhumerus -34.8631 12.6456 82.6401
lradius 29.988
lwrist -4.33404
lhand -20.7499 18.0742
lfingers 7.12502
lthumb 5.61586 47.9798
rfemur -11.0415 5.28982 19.3006
rtibia 22.2475
rfoot -11.3936 -7.41406
rtoes 7.90161
lfemur -12.1854 -3.61886 -17.1154
ltibia 24.4218
lfoot -13.5743 9.20171
ltoes -2.52932
79
root 0.724423 17.7316 -15.7059 5.2338 -3.34479 -0.881845
lowerback 4.26217 0.119257 -0.52099
upperback -0.955813 0.22008 2.74723
thorax -3.39 0.148487 3.11359
lowerneck -16.0338 -4.47861 -10.4345
upperneck 20.306 -4.90053 5.9801
head 9.47264 -2.44624 3.16548
rclavicle -1.19271e-015 -1.03368e-014
rhumerus -33.8749 -9.90289 -78.7593
rradius 33.0519
rwrist 4.72665
rhand -11.5567 13.1931
rfingers 7.12502
rthumb 14.4841 -16.2814
lclavicle -1.19271e-015 -1.03368e-014
lhumerus -34.8419 12.4856 82.655
lradius 30.0779
lwrist -4.31016
lhand -20.803 18.2194
lfingers 7.12502
lthumb 5.56457 48.1264
rfemur -11.0234 5.36749 19.3455
rtibia 22.2557
rfoot -11.4266 -7.46862
rtoes 7.96242
lfemur -12.1721 -3.7856 -17.0639
ltibia 24.444
lfoot -13.5591 9.31609
ltoes -2.35975
80
root 0.723514 17.7345 -15.7061 5.29277 -3.34792 -0.925719
lowerback 4.15676 0.110882 -0.450105
upperback -0.955829 0.211414 2.73908
thorax -3.32969 0.1421 3.06534
lowerneck -16.0007 -4.46924 -10.3959
upperneck 20.2789 -4.89262 5.94773
head 9.45436 -2.44333 3.14883
rclavicle -1.59028e-015 -7.15625e-015
rhumerus -33.9114 -9.84502 -78.8419
rradius 33.1541
rwrist 4.67233
rhand -11.7224 13.0158
rfingers 7.12502
rthumb 14.3245 -16.47
lclavicle -1.59028e-015 -7.15625e-015
lhumerus -34.8237 12.4888 82.6365
lradius 29.9703
lwrist -4.38812
lhand -21.0128 17.9624
lfingers 7.12502
lthumb 5.36197 47.8745
rfemur -11.0751 5.33575 19.3973
rtibia 22.2359
rfoot -11.474 -7.43518
rtoes 8.18887
lfemur -12.2317 -3.90369 -16.9987
ltibia 24.4725
lfoot -13.5875 9.38618
ltoes -2.22567
81
root 0.725603 17.7336 -15.7037 5.38288 -3.34618 -0.963507
lowerback 4.05143 0.114281 -0.385242
upperback -0.992604 0.219299 2.74673
thorax -3.3085 0.144927 3.03598
lowerneck -15.9327 -4.45868 -10.406
upperneck 20.2671 -4.89155 5.98683
head 9.43876 -2.44042 3.1651
rclavicle 7.65321e-015 5.56597e-015
rhumerus -34.0174 -9.72116 -78.8826
rradius 33.3167
rwrist 4.47772
rhand -11.7383 12.7316
rfingers 7.12502
rthumb 14.3092 -16.7554
lclavicle 7.65321e-015 5.56597e-015
lhumerus -34.7843 12.5407 82.616
lradius 29.752
lwrist -4.60428
lhand -20.8585 17.7203
lfingers 7.12502
lthumb 5.511 47.6286
rfemur -11.1657 5.25294 19.418
rtibia 22.2552
rfoot -11.4719 -7.35223
rtoes 7.99789
lfemur -12.3156 -3.88203 -16.9634
ltibia 24.4622
lfoot -13.6206 9.35851
ltoes -2.17877
82
root 0.728066 17.7329 -15.7058 5.3627 -3.34104 -0.969839
lowerback 4.0665 0.114222 -0.335985
upperback -0.968997 0.221128 2.73574
thorax -3.29241 0.144411 2.99654
lowerneck -15.9331 -4.45002 -10.4027
upperneck 20.2285 -4.88484 6.01258
head 9.42516 -2.43377 3.17409
rclavicle -2.5842e-015 -2.22639e-014
rhumerus -33.9148 -9.81926 -78.8623
rradius 33.2178
rwrist 4.56519
rhand -11.508 12.7479
rfingers 7.12502
rthumb 14.5311 -16.7232
lclavicle -2.5842e-015 -2.22639e-014
lhumerus -34.723 12.5666 82.6252
lradius 29.7329
lwrist -4.7087
lhand -20.5159 17.7906
lfingers 7.12502
lthumb 5.84173 47.6901
rfemur -11.1584 5.2211 19.4109
rtibia 22.2717
rfoot -11.4967 -7.2692
rtoes 7.99
lfemur -12.2982 -3.84147 -16.9664
ltibia 24.4531
lfoot -13.6449 9.31087
ltoes -2.00667
83
root 0.729766 17.7289 -15.7072 5.15931 -3.27128 -0.807202
lowerback 4.19841 0.104071 -0.435857
upperback -0.862445 0.199333 2.66886
thorax -3.25548 0.133672 2.98483
lowerneck -16.0355 -4.48006 -10.345
upperneck 20.2422 -4.92018 5.96644
head 9.44931 -2.44909 3.14244
rclavicle 6.65929e-015 1.27222e-014
rhumerus -33.767 -9.98678 -78.8382
rradius 33.0786
rwrist 4.7921
rhand -11.4551 12.9168
rfingers 7.12502
rthumb 14.5821 -16.5506
lclavicle 6.65929e-015 1.27222e-014
lhumerus -34.6566 12.5403 82.6627
lradius 29.7968
lwrist -4.70009
lhand -20.9757 17.0665
lfingers 7.12502
lthumb 5.39785 46.9777
rfemur -10.9647 5.15478 19.2532
rtibia 22.3317
rfoot -11.5798 -7.27714
rtoes 7.67611
lfemur -12.0841 -3.84725 -17.1515
ltibia 24.4202
lfoot -13.6273 9.22064
ltoes -1.48115
84
root 0.730256 17.7268 -15.7078 5.09497 -3.1939 -0.791435
lowerback 4.1934 0.0918742 -0.386929
upperback -0.813927 0.18379 2.64246
thorax -3.20133 0.123886 2.9306
lowerneck -16.0485 -4.51737 -10.3884
upperneck 20.2443 -4.97197 6.01951
head 9.45979 -2.47056 3.16107
rclavicle 2.13694e-015 -2.94201e-014
rhumerus -33.7082 -10.0979 -78.8409
rradius 33.0297
rwrist 4.87933
rhand -11.4832 13.2764
rfingers 7.12502
rthumb 14.555 -16.193
lclavicle 2.13694e-015 -2.94201e-014
lhumerus -34.6156 12.5153 82.6715
lradius 29.842
lwrist -4.76088
lhand -21.3038 16.7367
lfingers 7.12502
lthumb 5.08106 46.6558
rfemur -10.9238 5.13484 19.2492
rtibia 22.3851
rfoot -11.5405 -7.3978
rtoes 7.29822
lfemur -11.9878 -3.95259 -17.1521
ltibia 24.3902
lfoot -13.6444 9.17028
ltoes -1.50701
85
root 0.731667 17.7272 -15.7093 5.0882 -3.19291 -0.755634
lowerback 4.19136 0.0920939 -0.366138
upperback -0.833426 0.184822 2.61787
thorax -3.22017 0.124076 2.89339
lowerneck -15.8703 -4.50103 -10.4328
upperneck 20.1661 -4.9622 6.05364
head 9.40086 -2.46794 3.18294
rclavicle 1.12313e-014 4.53229e-014
rhumerus -33.7796 -9.98143 -78.9046
rradius 33.1645
rwrist 4.74031
rhand -11.4394 13.1281
rfingers 7.12502
rthumb 14.5971 -16.3382
lclavicle 1.12313e-014 4.53229e-014
lhumerus -34.6967 12.5972 82.6215
lradius 29.8842
lwrist -5.01014
lhand -21.388 17.131
lfingers 7.12502
lthumb 4.99971 47.052
rfemur -10.9742 5.1032 19.1952
rtibia 22.4841
rfoot -11.556 -7.34244
rtoes 7.60779
lfemur -11.8944 -4.02027 -17.1833
ltibia 24.3035
lfoot -13.6792 9.12903
ltoes -1.23449
86
root 0.733111 17.7278 -15.7066 4.98076 -3.09129 -0.711298
lowerback 4.31921 0.0710929 -0.383042
upperback -0.848411 0.157689 2.62168
thorax -3.30635 0.111745 2.90934
lowerneck -15.7816 -4.50876 -10.4658
upperneck 20.1562 -4.96881 6.03208
head 9.38221 -2.47728 3.18077
rclavicle -1.05356e-014 2.78299e-014
rhumerus -33.9603 -9.81925 -78.9085
rradius 33.4276
rwrist 4.54152
rhand -11.4222 12.845
rfingers 7.12502
rthumb 14.6137 -16.6201
lclavicle -1.05356e-014 2.78299e-014
lhumerus -34.8049 12.6091 82.6639
lradius 29.9818
lwrist -5.10373
lhand -21.2699 17.2068
lfingers 7.12502
lthumb 5.11375 47.1251
rfemur -10.8652 4.99159 19.1644
rtibia 22.5549
rfoot -11.618 -7.36346
rtoes 7.43336
lfemur -11.7934 -4.06211 -17.2527
ltibia 24.2469
lfoot -13.5779 9.13214
ltoes -1.39159
87
root 0.735304 17.7264 -15.7075 4.84517 -3.05561 -0.47942
lowerback 4.49084 0.0433008 -0.586991
upperback -0.864038 0.109139 2.56287
thorax -3.41696 0.0921038 2.9678
lowerneck -15.6348 -4.46435 -10.4971
upperneck 20.1419 -4.92181 6.06308
head 9.34742 -2.4569 3.20481
rclavicle -2.5345e-015 -1.11319e-014
rhumerus -34.0663 -9.70118 -78.9248
rradius 33.5038
rwrist 4.49129
rhand -11.4301 12.6701
rfingers 7.12502
rthumb 14.6061 -16.7956
lclavicle -2.5345e-015 -1.11319e-014
lhumerus -34.9072 12.6704 82.675
lradius 30.0644
lwrist -5.07029
lhand -21.3551 17.2208
lfingers 7.12502
lthumb 5.03146 47.1411
rfemur -10.763 4.85884 18.9149
rtibia 22.6309
rfoot -11.6828 -7.30592
rtoes 7.35657
lfemur -11.6749 -4.15811 -17.5366
ltibia 24.1958
lfoot -13.4784 9.22593
ltoes -1.55089
88
root 0.734819 17.7251 -15.7117 4.84215 -3.07014 -0.431035
lowerback 4.4686 0.00810144 -0.670851
upperback -0.863027 0.0580582 2.59023
thorax -3.40074 0.0684507 3.0472
lowerneck -15.5321 -4.41189 -10.5598
upperneck 20.137 -4.83967 6.04561
head 9.32066 -2.42705 3.22123
rclavicle -1.41634e-014 2.06736e-014
rhumerus -34.0114 -9.50612 -78.9697
rradius 33.4841
rwrist 4.45819
rhand -11.4704 12.6031
rfingers 7.12502
rthumb 14.5673 -16.8654
lclavicle -1.41634e-014 2.06736e-014
lhumerus -34.9068 12.8686 82.6592
lradius 30.0763
lwrist -5.11228
lhand -21.394 17.5716
lfingers 7.12502
lthumb 4.99389 47.4928
rfemur -10.8034 4.83845 18.8545
rtibia 22.6737
rfoot -11.7579 -7.26409
rtoes 7.33903
lfemur -11.6632 -4.08111 -17.5839
ltibia 24.1868
lfoot -13.471 9.13336
ltoes -1.38303
